<?xml version="1.0" encoding="UTF-8"?>
<svg width="90px" height="90px" viewBox="0 0 90 90" version="1.1" xmlns="http://www.w3.org/2000/svg" xmlns:xlink="http://www.w3.org/1999/xlink">
    <!-- Generator: Sketch 61 (89581) - https://sketch.com -->
    <title>Group 4</title>
    <desc>Created with Sketch.</desc>
    <g id="Welcome" stroke="none" stroke-width="1" fill="none" fill-rule="evenodd">
        <g id="Desktop-Home" transform="translate(-267.000000, -2615.000000)">
            <rect id="Rectangle-Copy-5" fill="#070707" x="0" y="2272" width="1440" height="1007"></rect>
            <g id="Group-4" transform="translate(267.000000, 2615.000000)">
                <path d="M66.227,51.801 C63.782,50.69 60.924,49.592 58.479,48.481 C58.613,46.45 59.244,44.314 59.378,42.283 C60.595,41.391 61.445,40.014 61.697,38.526 C61.79,37.976 61.797,37.38 61.522,36.894 C61.247,36.408 60.931,35.888 60.422,36.116 C60.831,33.989 61.15,31.789 60.703,29.669 C60.256,27.55 58.899,25.505 56.855,24.789 C55.756,24.404 54.576,24.429 53.406,24.549 C52.236,24.429 51.056,24.404 49.957,24.789 C49.303,25.018 48.728,25.394 48.223,25.854 C48.513,26.48 48.74,27.155 48.89,27.864 C49.332,29.959 49.126,32.063 48.803,33.96 C49.086,34.21 49.354,34.557 49.604,35 C49.996,35.694 50.103,36.521 49.931,37.529 C49.649,39.202 48.771,40.752 47.492,41.864 C47.478,42.004 47.452,42.144 47.435,42.285 C47.549,44 48,45.786 48.223,47.524 C48.766,47.753 49.312,47.981 49.852,48.206 C51.214,48.774 52.623,49.36 53.91,49.946 C55.937,50.867 58.458,52.012 59.912,54.312 C61.554,56.908 61.277,60.141 61.074,62.503 C61.063,62.646 61.028,62.779 60.975,62.903 L72.093,62.903 C72.093,62.835 72.413,62.753 72.419,62.685 C72.627,60.249 72.79,57.615 71.484,55.549 C70.316,53.703 68.216,52.705 66.227,51.801 Z" id="Path"></path>
                <path d="M51.856,51.098 C49.319,49.945 46.351,48.805 43.814,47.652 C43.953,45.544 44.608,43.327 44.747,41.218 C46.01,40.292 46.893,38.863 47.154,37.319 C47.251,36.748 47.258,36.129 46.973,35.625 C46.688,35.121 46.36,34.581 45.831,34.818 C46.256,32.611 46.587,30.326 46.122,28.127 C45.657,25.928 44.25,23.805 42.128,23.061 C40.987,22.661 39.762,22.688 38.548,22.812 C37.334,22.687 36.109,22.661 34.968,23.061 C32.847,23.805 31.439,25.927 30.974,28.127 C30.509,30.327 30.84,32.611 31.265,34.818 C30.736,34.581 30.408,35.121 30.123,35.625 C29.838,36.129 29.845,36.748 29.942,37.319 C30.203,38.863 31.086,40.293 32.349,41.218 C32.488,43.327 33.143,45.543 33.282,47.652 C30.745,48.805 27.777,49.945 25.24,51.098 C23.176,52.036 20.996,53.072 19.783,54.988 C18.427,57.132 18.596,59.867 18.812,62.395 C18.818,62.465 19.15,62.551 19.15,62.621 L38.547,62.621 L57.944,62.621 C57.944,62.551 58.276,62.465 58.282,62.395 C58.498,59.867 58.667,57.132 57.311,54.988 C56.101,53.072 53.921,52.036 51.856,51.098 Z" id="Path"></path>
                <path d="M45,0 C20.147,0 0,20.147 0,45 C0,69.853 20.147,90 45,90 C69.853,90 90,69.853 90,45 C90,20.147 69.853,0 45,0 Z M58.284,62.395 C58.278,62.465 57.946,62.551 57.946,62.621 L38.548,62.621 L19.151,62.621 C19.151,62.551 18.819,62.465 18.813,62.395 C18.597,59.867 18.428,57.132 19.784,54.988 C20.996,53.072 23.176,52.036 25.241,51.098 C27.778,49.945 30.746,48.805 33.283,47.652 C33.144,45.544 32.489,43.327 32.35,41.218 C31.087,40.292 30.204,38.863 29.943,37.319 C29.846,36.748 29.839,36.129 30.124,35.625 C30.409,35.121 30.737,34.581 31.266,34.818 C30.841,32.611 30.51,30.326 30.975,28.127 C31.44,25.928 32.847,23.805 34.969,23.061 C36.11,22.661 37.335,22.688 38.549,22.812 C39.763,22.687 40.988,22.661 42.129,23.061 C44.25,23.805 45.658,25.927 46.123,28.127 C46.588,30.327 46.257,32.611 45.832,34.818 C46.361,34.581 46.689,35.121 46.974,35.625 C47.259,36.129 47.252,36.748 47.155,37.319 C46.894,38.863 46.011,40.293 44.748,41.218 C44.609,43.327 43.954,45.543 43.815,47.652 C46.352,48.805 49.32,49.945 51.857,51.098 C53.921,52.036 56.101,53.072 57.314,54.988 C58.669,57.133 58.5,59.867 58.284,62.395 Z M72.419,62.685 C72.413,62.752 72.093,62.835 72.093,62.903 L60.975,62.903 C61.028,62.779 61.062,62.646 61.074,62.503 C61.277,60.142 61.554,56.908 59.912,54.312 C58.458,52.013 55.937,50.867 53.91,49.946 C52.624,49.36 51.214,48.774 49.852,48.206 C49.312,47.981 48.765,47.753 48.223,47.524 C48,45.786 47.549,44 47.435,42.285 C47.452,42.145 47.478,42.005 47.492,41.864 C48.77,40.752 49.648,39.202 49.931,37.529 C50.103,36.521 49.996,35.694 49.604,35 C49.354,34.557 49.086,34.21 48.803,33.96 C49.126,32.062 49.333,29.959 48.89,27.864 C48.74,27.154 48.514,26.48 48.223,25.854 C48.729,25.394 49.304,25.018 49.957,24.789 C51.056,24.404 52.236,24.429 53.406,24.549 C54.575,24.429 55.756,24.404 56.855,24.789 C58.899,25.505 60.255,27.55 60.703,29.669 C61.15,31.788 60.832,33.989 60.422,36.116 C60.931,35.888 61.247,36.408 61.522,36.894 C61.797,37.38 61.79,37.975 61.697,38.526 C61.445,40.013 60.595,41.391 59.378,42.283 C59.244,44.314 58.613,46.45 58.479,48.481 C60.923,49.592 63.782,50.69 66.227,51.801 C68.216,52.705 70.316,53.703 71.484,55.549 C72.791,57.615 72.628,60.249 72.419,62.685 Z" id="Shape" fill="#FFFFFF" fill-rule="nonzero"></path>
            </g>
        </g>
    </g>
</svg>