<?xml version="1.0" encoding="UTF-8"?>
<svg width="23px" height="22px" viewBox="0 0 23 22" version="1.1" xmlns="http://www.w3.org/2000/svg" xmlns:xlink="http://www.w3.org/1999/xlink">
    <!-- Generator: Sketch 61 (89581) - https://sketch.com -->
    <title>Group</title>
    <desc>Created with Sketch.</desc>
    <g id="Welcome" stroke="none" stroke-width="1" fill="none" fill-rule="evenodd">
        <g id="Desktop-Home" transform="translate(-38.000000, -34.000000)">
            <rect id="Rectangle" fill-opacity="0.95" fill="#EEEEEE" x="0" y="0" width="1440" height="90"></rect>
            <g id="Group" transform="translate(38.000000, 34.000000)" fill="#000000" fill-rule="nonzero">
                <path d="M8.00184565,16 C5.86447053,16 3.85506051,15.1679946 2.34364055,13.6569655 C0.832220583,12.1459364 0,10.137046 0,8.00022366 C0,5.86340127 0.832220583,3.85451089 2.34364055,2.34348179 C3.85461308,0.832452682 5.86447053,0 8.00184565,0 C10.1392208,0 12.1490782,0.832005368 13.6600508,2.34348179 C16.7799831,5.46260729 16.7799831,10.53784 13.6600508,13.6569655 C12.1490782,15.1679946 10.1396682,16 8.00184565,16 Z M8.00184565,1.34239146 C6.2228623,1.34239146 4.55036738,2.03483463 3.29264047,3.29268361 C2.03446612,4.55053258 1.34229126,6.22214767 1.34229126,8.00022366 C1.34229126,9.77829964 2.03491356,11.450362 3.29264047,12.708211 C4.55081481,13.96606 6.2228623,14.6580559 8.00184565,14.6580559 C9.780829,14.6580559 11.4533239,13.9656127 12.7110508,12.708211 C15.3074896,10.1124437 15.3074896,5.88845089 12.7110508,3.29268361 C11.4533239,2.03483463 9.78127644,1.34239146 8.00184565,1.34239146 Z" id="Shape"></path>
                <path d="M22.2856463,22 C22.1028327,22 21.920019,21.937445 21.7805284,21.8119064 L13.2092359,14.0970698 C12.9302547,13.8459927 12.9302547,13.4393849 13.2092359,13.1883078 C13.4882171,12.9372307 13.9400143,12.9372307 14.2189955,13.1883078 L22.7907641,20.9031444 C23.0697453,21.1542215 23.0697453,21.5608293 22.7907641,21.8119064 C22.6512735,21.937445 22.4684599,22 22.2856463,22 Z" id="Path"></path>
            </g>
        </g>
    </g>
</svg>