<?xml version="1.0" encoding="UTF-8"?>
<svg width="740px" height="42px" viewBox="0 0 740 42" version="1.1" xmlns="http://www.w3.org/2000/svg" xmlns:xlink="http://www.w3.org/1999/xlink">
    <!-- Generator: Sketch 61 (89581) - https://sketch.com -->
    <title>Group 53</title>
    <desc>Created with Sketch.</desc>
    <defs>
        <polygon id="path-1" points="0.135128941 0.774963139 22.4813425 0.774963139 22.4813425 33.5202822 0.135128941 33.5202822"></polygon>
        <polygon id="path-3" points="0 41 740 41 740 0 0 0"></polygon>
    </defs>
    <g id="Welcome" stroke="none" stroke-width="1" fill="none" fill-rule="evenodd">
        <g id="Fabricación" transform="translate(-349.000000, -1401.000000)">
            <g id="Group-53" transform="translate(349.000000, 1401.000000)">
                <g id="Group-3" transform="translate(32.000000, 8.000000)">
                    <mask id="mask-2" fill="white">
                        <use xlink:href="#path-1"></use>
                    </mask>
                    <g id="Clip-2"></g>
                    <path d="M11.2048333,18.5843858 C14.5611296,18.7845405 17.6277963,15.8344334 17.6320747,12.3143203 C17.6405741,8.53313576 14.8124259,5.58737981 11.2602037,5.62654052 C7.64409259,5.67440362 4.89687037,8.48527266 4.88834693,12.1359215 C4.88409259,15.7691655 7.64409259,18.5887369 11.2048333,18.5843858 L11.2048333,18.5843858 Z M13.0746481,0.774963139 C14.1948333,1.22748695 15.3618704,1.58428457 16.4224259,2.14993933 C19.9320556,4.02965362 21.993537,7.06243338 22.2916852,11.0611774 C22.5557593,14.6770167 22.4790926,18.3189631 22.4407593,21.9522072 C22.4024259,25.306975 21.2481667,28.2396774 18.773537,30.5414572 C16.8952037,32.2906358 14.6718704,33.278356 12.1290926,33.5133203 C11.6052037,33.5568322 11.3368704,33.4437012 11.3624259,32.821481 C11.4050185,31.6640643 11.3752037,30.4979453 11.3752037,29.2839631 C14.2842778,29.0925108 16.3840926,27.7305881 17.6150185,25.054606 C18.3007593,23.5664989 18.1942778,21.9913679 18.1687222,20.2204334 C17.8620556,20.4336417 17.704463,20.5032608 17.5979815,20.6294453 C14.7826111,23.8275703 10.4765,24.1147489 7.06057407,22.6440465 C2.65224074,20.738225 -0.0353518519,16.5915405 0.143537037,11.7312608 C0.292611111,7.67595123 2.17946296,4.53439171 5.59964815,2.44146909 C6.59631481,1.83230243 7.76761111,1.5233679 8.86224074,1.07519528 C8.91335185,1.05343933 8.96446296,1.03168338 9.01983333,1.00992743 C9.43724074,0.853284568 9.87594444,0.774963139 10.3189074,0.774963139 L13.0746481,0.774963139 Z" id="Fill-1" fill="#020203" mask="url(#mask-2)"></path>
                </g>
                <path d="M107.428376,27.0903895 C110.879176,27.1697527 113.895885,24.2774067 114.044967,20.9132909 C114.229126,16.7555435 110.958101,14.1277414 107.919468,13.9557879 C103.837263,13.7309257 101.026637,16.7952251 100.917018,20.2960219 C100.794245,24.0481354 103.648719,26.9977992 107.428376,27.0903895 L107.428376,27.0903895 Z M109.335743,9 C109.620752,9.11904473 109.896991,9.2689529 110.199539,9.33949793 C114.913148,10.4682183 118.605109,14.7097379 118.85504,19.6170261 C119.047969,23.3867758 118.951505,27.1741617 118.999737,30.9527296 C119.008506,31.4200903 118.798038,31.5391351 118.377102,31.5303169 C117.298453,31.5126807 116.219804,31.5038626 115.14554,31.534726 C114.641293,31.5479532 114.50975,31.3275 114.52729,30.8689573 C114.553598,30.2384612 114.531674,29.603556 114.531674,28.8584242 C114.373823,28.9201511 114.145816,28.9377873 114.044967,29.0612411 C111.168569,32.495902 106.174336,32.6149467 102.749845,30.9791839 C99.2990448,29.330194 97.1680552,26.6230287 96.2779504,22.9326422 C95.1773776,18.3560338 97.4311403,13.0872023 101.517729,10.7459893 C102.548146,10.1551748 103.705721,9.80244964 104.806294,9.33508886 C105.04307,9.23368039 105.275462,9.11463566 105.512239,9 L109.335743,9 Z" id="Fill-4" fill="#020203"></path>
                <path d="M71.2135003,9 C71.8536459,9.25455972 72.5066804,9.47891743 73.129641,9.76367915 C76.9275522,11.476564 78.9253223,14.4234164 78.9768777,18.6042361 C79.0198405,22.4528339 78.9897665,26.3014317 78.9897665,30.1500294 L78.9897665,30.9870563 L74.3111179,30.9870563 C74.2939328,30.7066091 74.2552663,30.4089037 74.2552663,30.1111983 C74.25097,26.2841734 74.2466737,22.461463 74.2552663,18.6344381 C74.2595626,16.5763875 73.3401587,15.0274564 71.4841659,14.2292606 C69.6668396,13.4353795 67.8323281,13.6856246 66.3114451,15.0274564 C65.357671,15.8774269 64.8335249,17.0121592 64.8335249,18.3453618 C64.8335249,22.2673073 64.8292286,26.1892528 64.8292286,30.1111983 L64.8292286,31 L60.0216917,31 L60.0216917,30.1888606 C60.0216917,26.3445774 59.9701363,22.491665 60.0259879,18.6430673 C60.0990247,14.2378898 62.8658288,10.4928417 67.200775,9.31927829 C67.445663,9.25455972 67.6690695,9.10786429 67.9010686,9 L71.2135003,9 Z" id="Fill-6" fill="#020203"></path>
                <path d="M15,9 L15,14.0846582 C14.3517137,14.0846582 13.7208311,14.1371224 13.0986503,14.0715421 C11.3060735,13.8835453 9.96164092,15.3044515 9.97904457,17.1887917 C9.99644823,19.4316375 10.0182028,21.6701113 9.9268336,23.9085851 C9.78760433,27.108903 7.06828272,30.1911765 3.90081691,30.7333068 C2.65210442,30.9519078 1.36423371,30.9169316 0.00239744273,31 C0.00239744273,29.3124006 -0.010655301,27.786566 0.0241520156,26.2563593 C0.0285029302,26.1383148 0.34176878,25.9372019 0.520156278,25.9240859 C1.10317883,25.8716216 1.68620139,25.9284579 2.26922394,25.8803657 C3.90081691,25.7535771 4.97984372,24.586248 4.98854555,22.9467409 C5.0015983,20.9050079 4.98419464,18.854531 4.99289647,16.8084261 C5.01465104,12.4538951 8.47362813,9.01311606 12.8288936,9 L15,9 Z" id="Fill-8" fill="#020203"></path>
                <mask id="mask-4" fill="white">
                    <use xlink:href="#path-3"></use>
                </mask>
                <g id="Clip-11"></g>
                <polygon id="Fill-10" fill="#020203" mask="url(#mask-4)" points="21 31 26 31 26 9 21 9"></polygon>
                <path d="M91,9.04738951 L91,31 L87.7918986,31 C86.0091236,31 86.0091236,31 86.0091236,29.2716563 C86.0091236,22.8344578 86.0135917,16.3928503 86.0001874,9.95124272 C86.0001874,9.32515903 85.9644425,8.92393638 86.8804046,9.01211719 C88.2074326,9.13997935 89.5612693,9.04738951 91,9.04738951" id="Fill-12" fill="#020203" mask="url(#mask-4)"></path>
                <path d="M179.365475,13.3815891 L175,13.3815891 L175,9.56907945 L179.34356,9.56907945 L179.34356,2 L184.427849,2 L184.427849,9.53895805 L201,9.53895805 L201,30 L195.819285,30 L195.819285,13.4590441 L184.45853,13.4590441 L184.45853,15.0856001 C184.462913,17.4781005 184.454147,19.879207 184.467296,22.2760105 C184.484828,24.8234209 185.804113,26.1057323 188.40762,26.1358537 C188.964262,26.1401568 189.525287,26.1358537 190.138908,26.1358537 C190.138908,26.8329491 190.15644,27.4482865 190.134525,28.0593207 C190.11261,28.6445367 190.051247,29.2297526 189.998651,29.9397572 C187.544167,29.7934532 185.102832,30.2840018 182.744774,29.3072076 C180.636548,28.4336868 179.383007,26.7124635 179.369858,24.461964 C179.347943,21.2303673 179.365475,17.9944675 179.365475,14.7628708 L179.365475,13.3815891 Z" id="Fill-13" fill="#020203" mask="url(#mask-4)"></path>
                <path d="M158.790875,19.7629078 C158.821148,21.2824808 159.20605,22.7027635 160.058023,23.9849032 C161.943609,26.8168347 165.524492,27.0024643 167.682537,24.3777474 C169.736788,21.8825395 169.706514,17.6346423 167.617666,15.1782871 C165.55909,12.7564676 162.423655,12.7607846 160.391028,15.2041889 C159.305519,16.5165474 158.860071,18.0663391 158.790875,19.7629078 M174.999997,20.013292 C174.995669,26.08295 170.074117,31.0086113 164.032458,30.9999887 C157.96485,30.9827095 153.013024,26.0656821 153.000025,20.0348769 C152.987076,13.947951 158.012422,8.93163338 164.058406,9.00070488 C170.182236,9.06977638 175.004319,13.9177322 174.999997,20.013292" id="Fill-14" fill="#020203" mask="url(#mask-4)"></path>
                <path d="M229.790875,19.7629078 C229.821148,21.2824808 230.210374,22.7027635 231.062348,23.9849032 C232.943609,26.8168347 236.528817,27.0024643 238.686862,24.3777474 C240.741112,21.8825395 240.710839,17.6346423 238.62199,15.1782871 C236.55909,12.7564676 233.42798,12.7607846 231.395353,15.2041889 C230.309843,16.5165474 229.860071,18.0663391 229.790875,19.7629078 M245.999997,20.013292 C245.999997,26.08295 241.078442,31.0086113 235.036782,30.9999887 C228.969174,30.9827095 224.017349,26.0656821 224.000025,20.0348769 C223.987076,13.947951 229.016747,8.93163338 235.058406,9.00070488 C241.18656,9.06977638 246.004319,13.9177322 245.999997,20.013292" id="Fill-15" fill="#020203" mask="url(#mask-4)"></path>
                <path d="M255.308116,30 L250,30 L250,9 L251.093767,9 L261.491246,9 C265.388627,9 267.705626,10.6715098 268.602962,14.4036639 C269.812801,19.4668351 270.870853,24.5653822 271.99587,29.6506633 C272.009263,29.7169931 271.986942,29.7921668 271.973548,29.9557802 L266.214532,29.9557802 C265.625238,27.1743525 265.027014,24.3619709 264.424327,21.5495894 C263.995749,19.5596968 263.553778,17.5742262 263.147521,15.5843335 C262.906446,14.390398 262.201078,13.572331 261.009096,13.4971573 C259.151925,13.3733418 257.285825,13.4662034 255.308116,13.4662034 L255.308116,30 Z" id="Fill-16" fill="#020203" mask="url(#mask-4)"></path>
                <path d="M221.957038,13.1752043 C219.680054,13.1752043 217.463216,13.1796502 215.246379,13.1752043 C213.515012,13.1663125 211.9469,13.575336 210.748261,14.9802427 C209.957761,15.9005456 209.463698,16.9542256 209.50666,18.2035256 C209.549622,19.483947 209.480883,20.8132733 209.768728,22.0403437 C210.279976,24.1921629 212.277707,25.6459747 214.417213,25.6637583 C216.913303,25.6815419 219.409393,25.6682042 222,25.6682042 L222,29.9940721 C221.488753,29.9940721 220.973209,30.0074098 220.466258,29.9940721 C217.454624,29.9184917 214.404324,30.096328 211.431356,29.6873045 C207.491744,29.1493497 204.437148,25.2814102 204.076268,21.1645 C203.719683,17.0831569 204.553145,13.5175392 207.861217,10.9077915 C209.244592,9.81409828 210.804112,9.08052356 212.548367,9.04051039 C215.66311,8.96492996 218.782149,9.01828085 221.957038,9.01828085 L221.957038,13.1752043 Z" id="Fill-17" fill="#020203" mask="url(#mask-4)"></path>
                <path d="M198.873544,8 C197.502496,6.53290183 196.2335,5.17367853 195,3.84466019 C196.220189,2.65372168 197.591237,1.31607335 198.948974,0 C200.253466,1.25566343 201.628952,2.57605178 203,3.89644013 C201.677759,5.21251348 200.355519,6.52858684 198.873544,8" id="Fill-18" fill="#020203" mask="url(#mask-4)"></path>
                <path d="M361,11.0038558 C362.980408,11.0038558 364.897802,10.9864444 366.819698,11.0256201 C367.026741,11.029973 367.319301,11.3129092 367.422822,11.5349053 C369.344718,15.8137708 371.24861,20.1013421 373.157003,24.3845605 C373.247021,24.5891452 373.346042,24.7893769 373.584591,24.9591386 L373.584591,11.0473845 L378,11.0473845 L378,31.9803087 L376.49219,31.9803087 C375.294943,31.9759558 374.088695,31.9150157 372.90045,31.9933673 C372.076781,32.0499545 371.743712,31.745254 371.437649,31.0487957 C369.556262,26.8047531 367.629865,22.5781219 365.71247,18.3471378 C365.617951,18.1382003 365.514429,17.9336157 365.280381,17.7464426 L365.280381,31.9324272 L361,31.9324272 L361,11.0038558 Z" id="Fill-19" fill="#020203" mask="url(#mask-4)"></path>
                <polygon id="Fill-20" fill="#020203" mask="url(#mask-4)" points="323 11 327.705462 11 327.705462 18.9952123 333.337432 18.9952123 333.337432 11.0305995 338 11.0305995 338 32 333.388905 32 333.388905 23.0037469 327.761224 23.0037469 327.761224 31.9956286 323 31.9956286"></polygon>
                <path d="M402,11.0395492 L406.914308,11.0395492 L406.914308,19.3168442 C406.963766,19.3255479 407.01772,19.3386036 407.071674,19.3516593 C407.336948,18.9512854 407.61571,18.5596153 407.880984,18.1548895 C409.35123,15.9354256 410.825972,13.7159616 412.273737,11.4877939 C412.507538,11.1309389 412.763819,10.9916785 413.195451,11.0003822 C414.917482,11.0221417 416.64401,11.009086 418.500926,11.009086 C418.307591,11.3050145 418.177202,11.5095534 418.033325,11.7097403 C416.077493,14.4775424 414.130653,17.2584002 412.138852,20.0000909 C411.720709,20.5658366 411.756678,20.9400992 412.138852,21.5101968 C414.337477,24.78717 416.49114,28.0989583 418.658291,31.397691 C418.757207,31.5456553 418.838138,31.7066752 419,31.9808443 C418.384025,31.9808443 417.866966,31.9808443 417.354404,31.9808443 C416.108966,31.9808443 414.859032,31.9634367 413.613594,31.9982518 C412.99762,32.0200113 412.637926,31.8415838 412.314203,31.2975975 C410.718064,28.58637 409.063475,25.9056057 407.431367,23.2161377 C407.318963,23.0290064 407.184078,22.8505789 406.923301,22.7069665 L406.923301,31.9373254 L402,31.9373254 L402,11.0395492 Z" id="Fill-21" fill="#020203" mask="url(#mask-4)"></path>
                <path d="M392.524867,23.5421772 C391.849911,20.8095439 391.196048,18.1510012 390.537966,15.4881001 C390.5,15.4881001 390.457815,15.4924584 390.415631,15.4924584 C389.668961,18.1597177 388.922291,20.8182604 388.158748,23.5421772 L392.524867,23.5421772 Z M387.593472,11.0034436 C389.403197,11.0034436 391.179174,10.9860105 392.955151,11.0295932 C393.136545,11.0339514 393.398091,11.3521049 393.474023,11.5787348 C394.756439,15.518608 396.017762,19.4671977 397.283304,23.4201457 C398.118561,26.0263893 398.953819,28.6369911 399.793295,31.2519512 C399.86079,31.461148 399.915631,31.6834196 400,31.9928566 C398.380107,31.9928566 396.819272,32.0059314 395.25,31.9754235 C395.119227,31.9754235 394.925178,31.7008527 394.870337,31.5221638 C394.511767,30.3759396 394.161634,29.2340737 393.849467,28.0747747 C393.739787,27.6563811 393.549956,27.5299913 393.144982,27.5343496 C391.326821,27.5561409 389.50444,27.5561409 387.686279,27.5343496 C387.281306,27.5299913 387.087256,27.6476646 386.969139,28.0660582 C386.644316,29.2209989 386.285746,30.3628648 385.910302,31.5003724 C385.847025,31.6964944 385.623446,31.9754235 385.467362,31.9797818 C384.011989,32.0102896 382.556616,31.9972148 381,31.9972148 C383.21048,24.9498974 385.399867,17.9941035 387.593472,11.0034436 L387.593472,11.0034436 Z" id="Fill-22" fill="#020203" mask="url(#mask-4)"></path>
                <path d="M311.241964,20.7281234 C312.785668,20.680065 314.390931,20.9509396 315.323782,19.5441395 C316.076693,18.403845 316.090899,17.0931617 315.266959,15.9878188 C314.30096,14.6946112 312.73358,14.9086895 311.241964,14.9349032 L311.241964,20.7281234 Z M306,11.0028532 C306.842881,11.0028532 307.671557,10.9941153 308.495497,11.0072221 C310.465377,11.0421737 312.439992,10.9853774 314.390931,11.1557662 C319.528718,11.6101365 321.219216,14.471795 320.977716,18.3994761 C320.740952,22.252885 318.146014,24.4810467 313.950549,24.6558045 C313.079256,24.690756 312.198492,24.6601734 311.237229,24.6601734 L311.237229,32 L306,32 L306,11.0028532 Z" id="Fill-23" fill="#020203" mask="url(#mask-4)"></path>
                <path d="M344.066592,17.3331888 C343.472109,16.0301053 342.955367,14.8915749 342.443197,13.7530446 C341.775547,12.2720657 341.775547,12.2720657 343.046826,11.2046936 C347.240216,7.70015493 353.308513,8.45176283 356.738221,12.9035943 C360.01245,17.1552934 359.692343,24.1554759 356.033988,28.1003056 C354.474614,29.7814168 352.380205,30.8309994 350.221775,31 C349.42151,29.2388359 348.612099,27.4554349 347.784396,25.6409022 C352.343622,26.1745883 354.12707,21.7583359 353.752089,18.8675363 C353.555452,17.3554257 352.883229,16.0745791 351.648534,15.100602 C349.362062,13.2905167 346.28447,13.8820188 344.619919,16.443712 C344.469011,16.6794233 344.32725,16.9151347 344.066592,17.3331888" id="Fill-24" fill="#020203" mask="url(#mask-4)"></path>
                <path d="M351,21.5 C351,23.9886026 348.985141,26 346.502229,26 C344.019316,26 342,23.9886026 342,21.5 C342,19.0113974 344.019316,17 346.502229,17 C348.985141,17 351,19.0113974 351,21.5" id="Fill-25" fill="#020203" mask="url(#mask-4)"></path>
                <path d="M457.231787,14.0265245 C458.494752,14.0265245 459.603159,13.9995103 460.711566,14.0355292 C461.643334,14.0670458 461.948036,14.733396 462.115842,15.557329 C462.857724,19.1772314 463.621686,22.7836268 464.381232,26.3945245 C464.478383,26.8627706 464.571118,27.3265144 464.721261,27.776751 C465.277672,29.4516312 466.386079,29.8703513 469.583237,29.645233 C470.925689,29.5506833 471.804466,28.7627692 472.087088,27.3490262 C472.329966,26.1288849 472.541932,24.9087437 472.76273,23.6886024 C472.899625,22.9322049 472.965865,22.1532955 473.191079,21.4284146 C473.31031,21.0502158 473.70333,20.757562 473.97712,20.4288893 C474.281822,20.7665667 474.780825,21.0592205 474.864729,21.4509264 C475.293077,23.3779392 475.606611,25.3274637 475.959888,27.2679836 C476.260173,28.8753284 477.099206,29.6047117 478.688953,29.6497353 C482.72956,29.7532898 482.972438,29.559688 483.829135,25.503056 C484.535689,22.1803097 485.255491,18.8575634 485.917885,15.5258124 C486.138683,14.4407421 486.686263,13.9499842 487.777006,14.0040126 C488.739686,14.0535387 489.706782,14.0130174 490.784277,14.0130174 C490.859348,14.9765237 491.027155,15.8724946 490.996243,16.7639631 C490.854932,20.1227284 490.8461,23.499503 490.431,26.8267517 C489.812765,31.6667954 487.560624,34.0530495 482.910614,35.0705843 C477.191942,36.3177398 471.429109,36.2547066 465.679525,35.2101577 C465.149609,35.115608 464.632942,34.9445181 464.116274,34.7914376 C460.627663,33.7694005 458.468257,31.5047102 457.744039,27.8172723 C456.85643,23.2878918 456.869678,18.7405019 457.231787,14.0265245" id="Fill-26" fill="#020203" mask="url(#mask-4)"></path>
                <path d="M541.493064,11 C544.790287,11 548.08751,11 551.389141,11.0041712 C552.570499,11.0041712 552.927551,11.3336992 552.971631,12.4390779 C553.081833,15.459056 553.024528,15.5132821 549.846323,15.5132821 C545.544064,15.5091109 541.241805,15.5049396 536.943954,15.5049396 C535.665619,15.5049396 535.652395,15.580022 535.59509,16.881449 C535.555418,17.8116356 535.815493,18.2079034 536.90869,18.1953897 C541.63853,18.1453348 546.36837,18.1787047 551.102617,18.182876 C552.605763,18.182876 552.993672,18.5582876 552.976039,19.9973655 C552.949591,22.7378705 552.949591,22.7420417 550.035869,22.7378705 C545.698346,22.7336992 541.365231,22.7211855 537.023299,22.7420417 C536.578086,22.746213 535.797861,22.9172338 535.740556,23.146652 C535.577458,23.7723381 535.634763,24.4856202 535.793453,25.12382 C535.837533,25.3031833 536.525189,25.4283205 536.921914,25.4324918 C541.585633,25.4575192 546.240536,25.4575192 550.904255,25.4575192 C552.720372,25.4575192 552.989264,25.7119649 552.984856,27.4680571 C552.980447,29.9082327 552.887878,30 550.344432,30 L531.95404,30 C530.296612,30 530.001272,29.7038419 530.001272,28.1813392 C530.005681,23.0298573 529.996864,17.8742042 530.001272,12.7227223 C530.001272,11.2711306 530.274572,11.0125137 531.81739,11.0083425 C535.039676,11.0041712 538.270778,11.0083425 541.493064,11.0083425 L541.493064,11 Z" id="Fill-27" fill="#020203" mask="url(#mask-4)"></path>
                <path d="M514.145892,25.4468982 C515.617639,25.4468982 517.089386,25.4719139 518.561133,25.4385596 C520.200827,25.4052053 521.367617,24.6088718 521.862619,23.137114 C522.441595,21.4235377 522.463693,19.6682685 521.915655,17.9421843 C521.433912,16.420395 520.218506,15.5365065 518.587651,15.5239987 C515.6088,15.4948137 512.629949,15.5239987 509.655517,15.5030994 C508.935113,15.4989829 508.603638,15.7408015 508.612478,16.4537493 C508.630156,19.1220921 508.630156,21.7987734 508.608058,24.4712854 C508.599219,25.2384339 508.983729,25.4677446 509.735071,25.4552367 C511.202399,25.430221 512.674145,25.4468982 514.145892,25.4468982 M503.003929,20.4520941 C503.003929,17.8462907 503.003929,15.236318 503.003929,12.6305145 C503.003929,11.2754967 503.282367,11.017001 504.687819,11.017001 C510.040028,11.0128317 515.392237,11.0253396 520.744445,11.0001604 C523.626064,10.9836467 525.667947,12.242771 526.755183,14.681803 C528.416976,18.4341599 528.377199,22.3074262 526.861255,26.0764603 C525.809376,28.6947716 523.634903,30.0206044 520.572079,29.9997579 C515.365719,29.9622344 510.159359,29.9997579 504.948579,29.9997579 C503.282367,29.9997579 503.008348,29.7412622 503.003929,28.1736109 C502.995089,25.6011617 503.003929,23.0245433 503.003929,20.4520941" id="Fill-28" fill="#020203" mask="url(#mask-4)"></path>
                <path d="M576.516944,29.8837714 C575.997277,29.8746222 575.477609,29.9020698 574.966676,29.9661144 C573.101987,30.1856958 571.669627,29.3256688 570.438147,27.7474278 C569.590958,26.6586703 568.560357,25.7300242 567.590894,24.7419081 C566.678201,23.8041127 566.258973,23.8041127 565.355014,24.7373335 C563.992525,26.1463138 562.686806,27.6239133 561.26318,28.9596999 C560.76098,29.4308849 559.98803,29.7556823 559.315519,29.8197268 C557.939929,29.9569652 556.546872,29.9066445 555.158181,29.8425999 C554.760788,29.8243015 554.118846,29.5726978 554.040241,29.2844973 C553.931067,28.9002299 554.136314,28.2552097 554.424533,27.9441361 C556.67788,25.519592 558.987998,23.1499433 561.276281,20.7619961 C562.363652,19.6274924 562.359285,19.2523743 561.254446,18.0995722 C559.114639,15.8717364 556.966099,13.6439006 554.826292,11.4160647 C554.651614,11.2330803 554.415799,11.0729689 554.32846,10.8488129 C554.162516,10.4325233 553.917966,9.9247414 554.02714,9.55877248 C554.101378,9.29801962 554.699651,9.07843827 555.070842,9.06471443 C556.594908,9.0098191 558.127708,8.96407298 559.651775,9.06928905 C560.219478,9.11503516 560.86142,9.47642947 561.293749,9.89729373 C562.699907,11.2559533 564.023094,12.7152544 565.385583,14.1242348 C566.258973,15.0254332 566.748072,15.0300078 567.63893,14.1105109 C569.001419,12.7015306 570.307138,11.2239311 571.730764,9.87899528 C572.206762,9.43068335 572.953511,9.13790822 573.595453,9.07843827 C574.971043,8.95949837 576.368468,8.99609526 577.748425,9.05556521 C578.18512,9.07843827 578.835796,9.29801962 578.966804,9.61824243 C579.097813,9.94303984 578.818328,10.6155077 578.525742,10.9311559 C576.346633,13.2779316 574.11512,15.5743866 571.901076,17.8845654 C570.556054,19.2935458 570.556054,19.5725971 571.874874,20.9404059 C574.040882,23.1911148 576.228725,25.4235252 578.359798,27.7154055 C578.525742,27.8938154 578.634916,28.1271206 578.735356,28.3787242 C578.914401,28.8453346 578.704787,29.3805641 578.259358,29.5772724 C578.001708,29.6870631 577.735324,29.7877046 577.46894,29.8334507 C577.154519,29.888346 576.835732,29.8929206 576.516944,29.8837714" id="Fill-29" fill="#020203" mask="url(#mask-4)"></path>
                <path d="M489,9.93628001 C487.772784,9.93628001 486.642337,9.92292482 485.51189,9.94073174 C484.869691,9.9496352 484.223093,9.98524903 483.585292,10.052025 C481.847835,10.2345458 480.638213,11.1159882 480.171959,12.8610659 C479.7189,14.5705298 479.349416,16.306704 478.869966,18.0028127 C478.764399,18.376758 478.359725,18.6661203 478.095808,18.9910965 C477.814296,18.6705721 477.374433,18.3856614 477.277663,18.0117162 C476.736632,15.9906313 476.283574,13.942836 475.790928,11.9083959 C475.364261,10.1633182 474.893608,9.89176272 472.36,9.93182828 C471.141581,9.9496352 470.626942,10.4526806 470.270653,11.9573649 C469.804399,13.9250291 469.364536,15.9015967 468.827904,17.8470022 C468.709141,18.2832717 468.234089,18.6171513 467.926186,19 C467.657869,18.6305065 467.261993,18.2966268 467.14323,17.8781643 C466.703368,16.2799937 466.377869,14.6506609 465.964399,13.039135 C465.462955,11.1337951 464.196151,10.0920905 462.256357,10.0253146 C460.549691,9.95853866 458.847423,10.0119594 457,10.0119594 C457.571821,7.23408058 458.741856,5.01711961 461.169897,3.99322196 C463.14488,3.16074866 465.317801,2.63099293 467.451134,2.37279265 C472.294021,1.78071271 477.154502,1.8563921 481.953402,2.87138629 C485.41512,3.60592155 487.873952,5.49345459 488.841649,9.07264461 C488.90323,9.29968278 488.925223,9.54007614 489,9.93628001" id="Fill-30" fill="#020203" mask="url(#mask-4)"></path>
                <path d="M494.00347,20.4525856 C494.007358,17.8455853 493.999582,15.238585 494.007358,12.6315847 C494.011246,11.2926293 494.275631,11.0089877 495.49258,11.0048165 C496.188534,11.0006453 496.8806,10.9964741 497.576555,11.0048165 C498.626319,11.0173301 498.97624,11.3802245 498.987904,12.5356471 C499.003456,14.5294809 498.999568,16.5316571 498.999568,18.525491 C498.999568,21.7456577 499.003456,24.9574821 498.987904,28.1776489 C498.984016,29.6834522 498.665199,29.9921211 497.246074,29.9962923 C496.64732,29.9962923 496.044678,30.0046347 495.445923,29.9962923 C494.372832,29.9754363 494.019022,29.6292266 494.011246,28.4779753 C493.991806,25.8000646 494.00347,23.1304963 494.00347,20.4525856" id="Fill-31" fill="#020203" mask="url(#mask-4)"></path>
                <path d="M699.94209,31.4448889 L674.214199,31.4448889 C673.153972,31.4448889 673.01058,31.3128889 673.00189,30.3488889 C672.988854,28.5768889 672.988854,28.5608889 674.952882,28.5568889 C688.292626,28.5528889 701.63237,28.5568889 714.972114,28.5568889 C718.548209,28.5568889 722.128648,28.5528889 725.709088,28.5568889 C726.851874,28.5568889 726.995265,28.6968889 727,29.7408889 C727.003955,31.4368889 727.003955,31.4368889 725.126832,31.4368889 L699.94209,31.4368889 L699.94209,31.4448889 Z" id="Fill-32" fill="#020203" mask="url(#mask-4)"></path>
                <path d="M618.167161,13.6176606 C620.051521,13.6176606 621.846575,13.6670875 623.637164,13.6053039 C626.021639,13.5270446 626.597664,12.8762567 626.419052,10.6808772 C626.419052,10.6561638 626.414586,10.6314503 626.414586,10.6108557 C626.298488,9.50286874 625.860888,8.95917252 624.664185,8.88503213 C622.717311,8.7614648 620.75704,8.78205936 618.8057,8.74498916 C618.604761,8.74087025 618.403822,8.78617827 618.167161,8.81501064 L618.167161,13.6176606 Z M616.005952,7.0026899 C617.104417,7.0026899 618.100181,6.99445208 619.10041,7.00680881 C621.109799,7.03152228 623.128119,6.97385753 625.124112,7.13037614 C627.34337,7.3074893 628.379322,8.42783303 628.508816,10.4955262 C628.540073,10.9568442 628.540073,11.4222812 628.504351,11.8794803 C628.370391,13.5970661 627.33444,14.7174098 625.517059,15.125182 C625.115181,15.2199169 624.695442,15.2817006 624.164071,15.3805544 C625.762651,17.5635771 627.329975,19.7095297 629,21.9872873 C628.115869,21.9872873 627.405885,22.0284764 626.713762,21.9625738 C626.490496,21.9419793 626.244904,21.6907257 626.093084,21.4888991 C624.686512,19.6065569 623.28887,17.7118579 621.922486,15.8048022 C621.654567,15.4423381 621.382183,15.2693438 620.890999,15.2899384 C620.024729,15.3270086 619.153994,15.3022951 618.193953,15.3022951 C618.167161,15.6070945 618.126973,15.862467 618.126973,16.1137205 C618.126973,17.8230685 618.109112,19.5241787 618.144834,21.2252888 C618.15823,21.7936985 617.975153,21.9872873 617.336614,21.9708117 C615.778221,21.9255037 616.014882,22.0820223 616.010417,20.7763275 C616.001486,16.4967792 616.005952,12.213112 616.005952,7.92944483 L616.005952,7.0026899 Z" id="Fill-33" fill="#020203" mask="url(#mask-4)"></path>
                <path d="M654.265779,7.13617659 L654.265779,8.92744389 C653.005771,8.84432243 651.761764,8.73210847 650.517757,8.69054775 C649.645752,8.65729917 648.761747,8.66976738 647.893741,8.76951313 C646.181731,8.95653639 645.229726,11.0345727 646.181731,12.539071 C646.389733,12.8632446 646.905736,13.1042969 647.309738,13.1541697 C648.529745,13.3162566 649.761752,13.3952219 650.99376,13.457563 C654.057778,13.6238059 655.053783,14.7002287 654.997783,17.863 C654.997783,18.0084625 654.993783,18.1539251 654.985783,18.3076997 C654.901782,20.5353547 653.905777,21.8403615 651.773764,21.9567315 C649.441751,22.0855697 647.093737,21.8943904 644.753723,21.8029568 C644.601722,21.7988007 644.365721,21.4954074 644.337721,21.3042281 C644.27372,20.9052451 644.317721,20.4813257 644.317721,20.0241577 C645.613728,20.1280595 646.833735,20.269366 648.053742,20.3109267 C649.165749,20.3483314 650.281755,20.3441753 651.381762,20.2236492 C652.461768,20.1155913 652.937771,19.4921804 653.037772,18.3617287 L653.049772,18.2162662 C653.185772,16.1423859 652.83777,15.689374 650.849759,15.4774143 C649.38575,15.3236396 647.909742,15.2945471 646.465733,15.0534949 C644.877724,14.7958184 644.16172,13.8523899 644.033719,12.1733366 C643.997719,11.6870761 643.989719,11.1925035 644.013719,10.7020869 C644.15772,8.39962267 645.181726,7.15280089 647.393739,7.04058692 C649.657752,6.92421689 651.929765,7.0904598 654.265779,7.13617659" id="Fill-34" fill="#020203" mask="url(#mask-4)"></path>
                <path d="M707.898324,16.5466549 L707.898324,15.0185328 C707.898324,14.5091588 707.947058,13.9956769 707.869083,13.4945186 C707.839843,13.2809102 707.566929,12.9399582 707.367118,12.9235268 C706.168249,12.8208304 704.954759,12.7222419 703.74127,12.7551048 C702.215879,12.7961833 701.441,13.3877144 701.324037,14.6775809 C701.216822,15.9715552 701.231442,17.2901766 701.333784,18.5923666 C701.42638,19.713811 702.094043,20.3012343 703.434242,20.3464207 C704.769568,20.3957149 706.124387,20.2272929 707.459713,20.0999494 C707.625411,20.0794101 707.869083,19.7261346 707.873957,19.5289575 C707.917818,18.5307488 707.898324,17.5407557 707.898324,16.5466549 M707.883704,11.4118362 L707.883704,7 L709.935427,7 C709.954921,7.26701057 709.993908,7.54634471 709.993908,7.82157099 C709.998782,12.1430344 710.008529,16.4603899 709.984161,20.7777454 C709.979288,21.131021 709.794097,21.7759542 709.633273,21.7923856 C708.975357,21.8457877 708.064021,22.2031711 707.839843,21.1638838 C706.299832,21.9197291 704.686719,22.1004747 703.019999,21.9525919 C700.763591,21.7636306 699.50624,20.9461675 699.208959,19.0647699 C698.950666,17.4791379 698.921426,15.8113488 699.179719,14.2298247 C699.515987,12.1471422 701.207075,11.1571492 703.8826,11.1776885 C705.169191,11.190012 706.460656,11.3255712 707.883704,11.4118362" id="Fill-35" fill="#020203" mask="url(#mask-4)"></path>
                <path d="M637.923912,16.6948159 C637.856214,16.1029519 637.847187,15.5861129 637.73887,15.0901141 C637.499668,14.0355959 637.116043,13.7146555 635.960655,13.6229583 C635.247565,13.5604374 634.520934,13.5687735 633.80333,13.5937819 C631.664057,13.6688069 630.874241,14.5732751 631.190167,16.6948159 L637.923912,16.6948159 Z M640,18.2078203 L631.20822,18.2078203 C630.793002,19.9042193 631.632464,21.1504682 633.356519,21.2630057 C634.918098,21.358871 636.49773,21.2213251 638.063823,21.1754765 C638.456474,21.1671404 638.849125,21.1087876 639.332041,21.062939 C639.332041,21.4797446 639.381687,21.8507017 639.309475,22.2008184 C639.273369,22.3800448 639.038681,22.6426324 638.858152,22.6676407 C636.633127,22.9927491 634.40359,23.1719756 632.169539,22.763506 C630.644066,22.4842462 629.709826,21.6006183 629.353281,20.2418319 C628.856825,18.3453662 628.892931,16.4363964 629.402926,14.5399307 C629.741419,13.2978499 630.626013,12.5392636 631.966443,12.2641719 C633.735631,11.901551 635.518359,11.9265593 637.29206,12.2516677 C638.691162,12.5059192 639.52611,13.310354 639.720179,14.5816113 C639.891682,15.7236587 639.900709,16.8782103 640,18.2078203 L640,18.2078203 Z" id="Fill-36" fill="#020203" mask="url(#mask-4)"></path>
                <path d="M666.869282,16.5154193 C666.804543,15.6645582 666.786046,14.8778323 666.684313,14.1082092 C666.55021,13.1419047 666.161775,12.6886822 665.149067,12.6117199 C663.993008,12.5176548 662.813829,12.5860658 661.648521,12.6587524 C660.987256,12.6929579 660.469341,13.1162506 660.450844,13.7276734 C660.390729,15.5747688 660.381481,17.4346913 660.432348,19.2817868 C660.455469,19.9616205 661.015001,20.3849132 661.750254,20.4276701 C662.864695,20.496081 663.988384,20.5516649 665.093576,20.4704269 C666.134029,20.3934646 666.559459,19.927415 666.688937,18.9311807 C666.79067,18.1102494 666.813792,17.276491 666.869282,16.5154193 M658,16.532522 C658.115606,15.4807038 658.180345,14.4930208 658.351442,13.5267162 C658.596526,12.1542217 659.493628,11.230674 660.996504,11.1066791 C662.647356,10.9741329 664.325953,10.9613059 665.976805,11.0895764 C667.535172,11.2135712 668.464644,12.149946 668.728225,13.5951272 C669.079667,15.5277363 669.098164,17.4603454 668.737473,19.3972302 C668.473892,20.8295843 667.595287,21.8129916 666.018423,21.9241594 C664.288959,22.0438786 662.53175,22.0182245 660.802286,21.8728512 C659.438137,21.7574077 658.615023,20.8595141 658.379187,19.6238415 C658.180345,18.5805746 658.115606,17.520205 658,16.532522" id="Fill-37" fill="#020203" mask="url(#mask-4)"></path>
                <path d="M724.396177,18 C723.292728,17.9211678 722.154387,17.9824817 721.090192,17.7284669 C718.455871,17.110948 716.733095,14.5489016 717.034036,11.8992639 C717.330615,9.21458961 719.511344,7.14305465 722.224171,7.03356549 C723.798657,6.96787199 725.377505,7.02042679 726.951991,7.01166766 C727.532065,7.01166766 727.937681,7.27006208 727.955126,7.85692399 C727.976934,8.48758157 727.558234,8.76349426 726.94763,8.76349426 C725.447288,8.77225339 723.946947,8.74597599 722.455328,8.78977166 C720.6366,8.84232646 719.192957,10.0686051 718.857125,11.7634973 C718.538739,13.4058347 719.397946,15.1138657 720.946263,15.7839394 C721.452193,16.0072972 722.040989,16.1036477 722.594895,16.1386842 C723.550054,16.1956186 724.505213,16.1386842 725.460372,16.1693412 C726.001193,16.1868595 726.23235,15.9853994 726.17129,15.4467127 C726.153844,15.3197053 726.166929,15.1883183 726.166929,15.0569313 C726.17129,13.4364917 726.17129,13.4277326 724.52702,13.3664186 C723.938224,13.3445208 723.480271,13.1386812 723.462825,12.4948849 C723.445379,11.8116725 723.907693,11.5620372 724.535743,11.5620372 C725.338252,11.5576577 726.136398,11.5488986 726.938907,11.5576577 C727.623656,11.5664168 727.994379,11.9124026 727.998741,12.6175128 C728.003102,14.0364923 727.994379,15.4598514 727.998741,16.8832105 C728.003102,17.5839412 727.662909,17.9343065 726.960714,17.9343065 C726.11023,17.9299269 725.251022,17.9343065 724.400538,17.9343065 C724.400538,17.9562043 724.396177,17.9781022 724.396177,18" id="Fill-38" fill="#020203" mask="url(#mask-4)"></path>
                <path d="M731.822434,9.44774178 L731.822434,10.2778706 C731.822434,12.0794266 731.826793,13.8809827 731.822434,15.6781232 C731.822434,16.5435766 731.530321,16.9630566 730.928656,16.9807189 C730.318272,17.0027968 730.01308,16.592148 730.01308,15.7266946 C730.00436,12.9095554 730.00872,10.0924163 730,7.2752771 C730,6.75423882 730.034879,6.16696686 730.610384,6.07423971 C730.980975,6.02125277 731.517241,6.23320054 731.800634,6.51579757 C733.93698,8.59995068 736.029727,10.7326752 738.135553,12.8477373 C738.405866,13.1170876 738.684899,13.3731912 739.120888,13.78384 C739.155767,13.3202042 739.190646,13.0552695 739.190646,12.7947504 C739.199366,10.9402074 739.190646,9.09007991 739.199366,7.23553689 C739.199366,6.40099253 739.539437,5.95501909 740.141102,6.00359045 C740.899723,6.06099297 741,6.60852472 741,7.23995247 C740.99128,10.0570916 740.99128,12.8742308 740.99564,15.69137 C740.99564,16.2079927 740.978201,16.7157842 740.415775,16.9321476 C739.862069,17.1529265 739.500198,16.7952646 739.138327,16.4287716 C736.997622,14.2739692 734.852556,12.1235824 732.711851,9.97319564 C732.493857,9.75683229 732.271502,9.55813125 732.049148,9.35501463 C731.97503,9.3815081 731.900912,9.41683273 731.822434,9.44774178" id="Fill-39" fill="#020203" mask="url(#mask-4)"></path>
                <path d="M673.03013,12.1623593 C673.120363,12.0949669 673.14087,12.0739068 673.161378,12.0739068 C674.793766,11.9012139 674.80607,11.9012139 674.818375,13.5649625 C674.826578,15.2329232 674.810172,16.9008839 674.818375,18.5688445 C674.818375,19.040591 674.834781,19.5123374 674.892201,19.9798719 C674.982434,20.7296118 675.363871,21.3024467 676.134949,21.3066587 C677.340784,21.3108708 678.546619,21.2139943 679.748352,21.0918456 C679.900106,21.0749975 680.117485,20.6285232 680.121586,20.3758019 C680.146195,17.9117691 680.137992,15.4477363 680.142094,12.9837035 L680.142094,12.2129035 C680.248732,12.1497232 680.289747,12.0991789 680.32666,12.0991789 C682.377399,12.0065144 681.938541,11.918062 681.946744,13.6028707 C681.967252,16.3659571 681.96315,19.1290434 681.938541,21.8921298 C681.93444,22.2248795 682.217442,22.7977145 681.60222,22.8482588 C681.085434,22.890379 680.384081,23.1683724 680.211819,22.1996074 C678.784504,23.0125276 677.299769,23.092556 675.782222,22.9324992 C674.006282,22.7387462 673.124464,21.9679462 673.054739,20.1441407 C672.948101,17.4863549 673.03013,14.8243571 673.03013,12.1623593" id="Fill-40" fill="#020203" mask="url(#mask-4)"></path>
                <path d="M686,21.9523749 L686,11.1156435 C686.620008,11.2220529 687.372285,10.6687241 687.678156,11.6051266 C688.570968,11.4008206 689.434846,11.1156435 690.315257,11.0390287 C691.183269,10.9539012 692.076081,11.0177469 692.944092,11.1369254 C694.080774,11.2986676 694.915719,12.0307642 694.948786,13.2097801 C695.03972,16.1168844 694.981853,19.0282451 694.981853,21.9821696 L693.316097,21.9821696 C693.316097,20.4243362 693.324364,18.9175794 693.311964,17.4150789 C693.299564,16.2828831 693.303697,15.1464309 693.200362,14.0270042 C693.117695,13.0693197 692.778757,12.6777332 691.852878,12.6436822 C690.637662,12.6053748 689.414179,12.7458352 688.194829,12.8181936 C687.674022,12.8479882 687.773224,13.2736258 687.773224,13.6098794 C687.76909,16.0232442 687.777357,18.4408653 687.764957,20.8542301 C687.760823,22.0289897 688.017093,22.0034514 686.603475,21.9991951 C686.434006,21.9991951 686.264537,21.9736568 686,21.9523749" id="Fill-41" fill="#020203" mask="url(#mask-4)"></path>
                <path d="M663.98018,31.4497215 C662.18018,31.4377215 662.47618,31.5937215 662.46818,29.9537215 C662.46018,28.4417215 662.25218,28.5457215 663.87218,28.5537215 C665.76418,28.5617215 665.53218,28.3417215 665.54018,30.2017215 C665.54818,31.6257215 665.67218,31.4337215 663.98018,31.4497215" id="Fill-42" fill="#020203" mask="url(#mask-4)"></path>
                <path d="M668.951115,31.4312835 C667.203115,31.4272835 667.399115,31.6472835 667.399115,29.9032835 C667.399115,28.4752835 667.271115,28.5872835 668.743115,28.5672835 C670.611115,28.5392835 670.611115,28.5512835 670.607115,30.2832835 C670.607115,31.4312835 670.607115,31.4312835 669.447115,31.4312835 L668.951115,31.4312835 Z" id="Fill-43" fill="#020203" mask="url(#mask-4)"></path>
                <path d="M660.436983,30.0740947 C660.416983,31.5220947 660.680983,31.4620947 659.084983,31.4380947 C657.392983,31.4140947 657.568983,31.6740947 657.564983,29.9420947 C657.564983,28.4740947 657.376983,28.5460947 658.924983,28.5580947 C660.700983,28.5700947 660.408983,28.4340947 660.436983,30.0740947" id="Fill-44" fill="#020203" mask="url(#mask-4)"></path>
                <path d="M653.342449,30.0453636 C653.322449,31.5773636 653.546449,31.4253636 651.930449,31.4293636 C650.658449,31.4333636 650.654449,31.4253636 650.658449,30.1693636 C650.662449,28.3013636 650.494449,28.5853636 652.218449,28.5813636 C653.550449,28.5813636 653.318449,28.5613636 653.342449,30.0453636" id="Fill-45" fill="#020203" mask="url(#mask-4)"></path>
                <path d="M645.729446,29.9729762 C645.749446,28.4129762 645.513446,28.5569762 647.113446,28.5569762 C648.265446,28.5529762 648.281446,28.5569762 648.261446,29.8569762 C648.241446,31.6529762 648.573446,31.4289762 646.701446,31.4449762 C645.733446,31.4529762 645.733446,31.4449762 645.729446,30.4689762 L645.729446,29.9729762 Z" id="Fill-46" fill="#020203" mask="url(#mask-4)"></path>
                <path d="M640.844599,29.9525026 C640.872599,28.3445026 640.580599,28.5525026 642.332599,28.4965026 C643.008599,28.4725026 643.236599,28.7165026 643.152599,29.3525026 C643.124599,29.5365026 643.148599,29.7245026 643.148599,29.9125026 C643.148599,31.3845026 642.680599,31.7445026 641.196599,31.3645026 C641.052599,31.3285026 640.888599,31.1005026 640.860599,30.9365026 C640.804599,30.6165026 640.844599,30.2805026 640.844599,29.9525026" id="Fill-47" fill="#020203" mask="url(#mask-4)"></path>
                <path d="M635.926853,30.0307163 C635.930853,28.4827163 635.950853,28.4707163 637.522853,28.5867163 C637.902853,28.6147163 638.102853,28.7387163 638.082853,29.1387163 C638.070853,29.4227163 638.086853,29.7067163 638.082853,29.9867163 C638.066853,31.6787163 638.250853,31.4027163 636.586853,31.4547163 C636.106853,31.4747163 635.870853,31.3187163 635.922853,30.8107163 C635.950853,30.5547163 635.926853,30.2907163 635.926853,30.0307163" id="Fill-48" fill="#020203" mask="url(#mask-4)"></path>
                <path d="M630.012689,30.0097933 L630.012689,29.5857933 C630.012689,28.5457933 630.012689,28.5457933 631.048689,28.5497933 C632.000689,28.5497933 632.000689,28.5497933 632.004689,29.5257933 L632.004689,30.1617933 C631.984689,31.5897933 632.164689,31.4097933 630.720689,31.4497933 C630.152689,31.4657933 629.936689,31.2617933 630.008689,30.7137933 C630.036689,30.4817933 630.012689,30.2457933 630.012689,30.0097933" id="Fill-49" fill="#020203" mask="url(#mask-4)"></path>
                <path d="M625.105544,30.0475335 L625.105544,29.6915335 C625.105544,28.6155335 625.457544,28.3315335 626.513544,28.6315335 C626.669544,28.6755335 626.849544,28.9435335 626.865544,29.1235335 C626.921544,29.5915335 626.889544,30.0635335 626.889544,30.5355335 C626.885544,31.4835335 626.881544,31.4875335 625.953544,31.4795335 C624.921544,31.4715335 625.125544,31.5075335 625.105544,30.0475335" id="Fill-50" fill="#020203" mask="url(#mask-4)"></path>
                <path d="M620.189457,29.9621622 L620.189457,29.4701622 C620.193457,28.5461622 620.229457,28.5461622 621.145457,28.5461622 C621.685457,28.5461622 621.845457,28.7701622 621.813457,29.2701622 C621.781457,29.7621622 621.777457,30.2581622 621.813457,30.7461622 C621.853457,31.2581622 621.689457,31.4861622 621.145457,31.4501622 C620.649457,31.4141622 620.105457,31.5301622 620.189457,30.7341622 C620.213457,30.4781622 620.193457,30.2181622 620.193457,29.9621622 L620.189457,29.9621622 Z" id="Fill-51" fill="#020203" mask="url(#mask-4)"></path>
                <path d="M616.716257,30.0288804 L616.716257,30.5968804 C616.716257,31.4408804 616.624257,31.5408804 615.776257,31.4168804 C615.596257,31.3888804 615.324257,31.1408804 615.312257,30.9808804 C615.260257,30.3208804 615.292257,29.6568804 615.292257,28.9968804 C615.292257,28.4168804 615.728257,28.5688804 616.056257,28.5448804 C616.408257,28.5248804 616.740257,28.5328804 616.716257,29.0368804 C616.700257,29.3648804 616.712257,29.6968804 616.712257,30.0288804 L616.716257,30.0288804 Z" id="Fill-52" fill="#020203" mask="url(#mask-4)"></path>
            </g>
        </g>
    </g>
</svg>